<svg version="1.1" viewBox="0.0 0.0 300.0 300.0" fill="none" stroke="none" stroke-linecap="square" stroke-miterlimit="10" xmlns:xlink="http://www.w3.org/1999/xlink" xmlns="http://www.w3.org/2000/svg"><clipPath id="p.0"><path d="m0 0l300.0 0l0 300.0l-300.0 0l0 -300.0z" clip-rule="nonzero"/></clipPath><g clip-path="url(#p.0)"><path fill="#000000" fill-opacity="0.0" d="m0 0l300.0 0l0 300.0l-300.0 0z" fill-rule="evenodd"/><path fill="#ffffff" d="m179.0149 88.365265l15.5590515 0l0 6.9921265l-15.5590515 0z" fill-rule="evenodd"/><path stroke="#ffffff" stroke-width="1.0" stroke-linejoin="round" stroke-linecap="butt" d="m179.0149 88.365265l15.5590515 0l0 6.9921265l-15.5590515 0z" fill-rule="evenodd"/><path fill="#000000" fill-opacity="0.0" d="m4.8346457 157.89107l290.3307 0l0 92.37796l-290.3307 0z" fill-rule="evenodd"/><path fill="#ffffff" d="m37.51964 229.43419q-5.296875 0 -9.828123 -1.90625q-4.515625 -1.90625 -7.875 -5.328125q-3.359375 -3.4375 -5.203126 -8.09375q-1.828125 -4.671875 -1.828125 -10.171875q0 -5.515625 1.828125 -10.171875q1.843751 -4.671875 5.203126 -8.09375q3.359375 -3.421875 7.875 -5.328125q4.531248 -1.921875 9.828123 -1.921875q5.359375 0 9.875 1.921875q4.53125 1.90625 7.84375 5.375q3.328125 3.453125 5.15625 8.078125q1.84375 4.625 1.84375 10.140625q0 5.4375 -1.84375 10.109375q-1.828125 4.65625 -5.15625 8.125q-3.3125 3.453125 -7.84375 5.359375q-4.515625 1.90625 -9.875 1.90625zm0 -8.765625q3.390625 0 6.171875 -1.234375q2.796875 -1.234375 4.84375 -3.53125q2.046875 -2.296875 3.21875 -5.328125q1.171875 -3.046875 1.171875 -6.640625q0 -3.609375 -1.171875 -6.640625q-1.171875 -3.046875 -3.21875 -5.34375q-2.046875 -2.296875 -4.84375 -3.53125q-2.78125 -1.234375 -6.171875 -1.234375q-3.328125 0 -6.156248 1.234375q-2.828125 1.234375 -4.875 3.5q-2.046875 2.265625 -3.1875 5.3125q-1.125 3.03125 -1.125 6.703125q0 3.59375 1.125 6.671875q1.140625 3.078125 3.1875 5.34375q2.046875 2.25 4.875 3.484375q2.828123 1.234375 6.156248 1.234375zm33.13982 8.0625l0 -37.234375l8.46875 0l0.140625 7.625l-1.625 0.859375q0.703125 -2.546875 2.75 -4.625q2.0625 -2.09375 4.890625 -3.359375q2.828125 -1.28125 5.78125 -1.28125q4.25 0 7.109375 1.703125q2.859375 1.6875 4.296875 5.078125q1.453125 3.390625 1.453125 8.484375l0 22.75l-8.6875 0l0 -22.109375q0 -2.828125 -0.78125 -4.703125q-0.765625 -1.875 -2.390625 -2.75q-1.625 -0.890625 -3.953125 -0.8125q-1.921875 0 -3.515625 0.59375q-1.578125 0.59375 -2.75 1.703125q-1.15625 1.09375 -1.828125 2.5q-0.671875 1.40625 -0.671875 3.109375l0 22.46875l-4.3125 0q-1.265625 0 -2.375 0q-1.09375 0 -2.0 0zm60.26406 0.703125q-4.3124924 0 -7.9218674 -1.09375q-3.59375 -1.09375 -6.5 -3.28125q-2.890625 -2.1875 -5.15625 -5.296875l6.015625 -6.78125q3.453125 4.796875 6.765625 6.640625q3.328125 1.828125 7.4999924 1.828125q2.40625 0 4.375 -0.734375q1.984375 -0.75 3.109375 -2.046875q1.140625 -1.3125 1.140625 -3.015625q0 -1.1875 -0.46875 -2.21875q-0.453125 -1.03125 -1.375 -1.84375q-0.921875 -0.8125 -2.265625 -1.515625q-1.328125 -0.703125 -3.03125 -1.1875q-1.6875 -0.5 -3.75 -0.921875q-3.8749924 -0.78125 -6.7812424 -2.09375q-2.890625 -1.3125 -4.875 -3.25q-1.96875 -1.9375 -2.890625 -4.375q-0.921875 -2.4375 -0.921875 -5.546875q0 -3.109375 1.375 -5.71875q1.390625 -2.625 3.78125 -4.53125q2.40625 -1.90625 5.578125 -2.96875q3.1875 -1.0625 6.8593674 -1.0625q4.171875 0 7.453125 1.0q3.28125 0.984375 5.796875 2.9375q2.515625 1.9375 4.140625 4.6875l-6.078125 6.0q-1.421875 -2.1875 -3.1875 -3.625q-1.765625 -1.453125 -3.8125 -2.1875q-2.046875 -0.75 -4.3125 -0.75q-2.546875 0 -4.4218674 0.703125q-1.859375 0.703125 -2.921875 2.015625q-1.0625 1.3125 -1.0625 3.140625q0 1.421875 0.625 2.515625q0.640625 1.09375 1.8125 1.9375q1.171875 0.84375 2.9999924 1.484375q1.84375 0.640625 4.171875 1.125q3.890625 0.78125 7.0 2.09375q3.109375 1.296875 5.296875 3.109375q2.1875 1.796875 3.3125 4.09375q1.140625 2.296875 1.140625 5.125q0 4.875 -2.296875 8.375q-2.296875 3.5 -6.46875 5.375q-4.171875 1.859375 -9.75 1.859375zm28.051498 -0.703125l0 -37.234375l8.6875 0l0 37.234375l-8.6875 0zm4.234375 -45.15625q-2.609375 0 -4.0625 -1.296875q-1.453125 -1.3125 -1.453125 -3.71875q0 -2.25 1.484375 -3.65625q1.484375 -1.421875 4.03125 -1.421875q2.6875 0 4.125 1.3125q1.453125 1.296875 1.453125 3.765625q0 2.203125 -1.484375 3.609375q-1.46875 1.40625 -4.09375 1.40625zm32.217926 61.40625q-4.15625 0 -8.296875 -1.28125q-4.140625 -1.265625 -6.671875 -3.3125l3.109375 -6.421875q1.484375 1.046875 3.3125 1.828125q1.84375 0.78125 3.921875 1.203125q2.09375 0.421875 4.140625 0.421875q3.734375 0 6.234375 -1.171875q2.515625 -1.15625 3.78125 -3.53125q1.28125 -2.359375 1.28125 -5.890625l0 -6.859375l1.28125 0.5q-0.4375 2.1875 -2.34375 4.171875q-1.90625 1.96875 -4.8125 3.21875q-2.890625 1.234375 -5.921875 1.234375q-5.296875 0 -9.359375 -2.46875q-4.0625 -2.484375 -6.4375 -6.75q-2.359375 -4.28125 -2.359375 -9.859375q0 -5.59375 2.328125 -9.9375q2.328125 -4.34375 6.390625 -6.84375q4.0625 -2.515625 9.15625 -2.515625q2.125 0 4.09375 0.5q1.984375 0.484375 3.640625 1.40625q1.65625 0.921875 3.0 2.0625q1.34375 1.125 2.1875 2.40625q0.859375 1.265625 1.0625 2.453125l-1.828125 0.578125l0.140625 -8.625l8.546875 0l0 34.6875q0 4.53125 -1.34375 7.984375q-1.34375 3.46875 -3.890625 5.90625q-2.546875 2.4375 -6.15625 3.671875q-3.59375 1.234375 -8.1875 1.234375zm0.359375 -23.3125q3.171875 0 5.609375 -1.484375q2.4375 -1.484375 3.78125 -4.09375q1.34375 -2.625 1.34375 -6.015625q0 -3.453125 -1.375 -6.109375q-1.375 -2.65625 -3.78125 -4.125q-2.40625 -1.484375 -5.578125 -1.484375q-3.1875 0 -5.59375 1.515625q-2.390625 1.515625 -3.765625 4.171875q-1.375 2.640625 -1.375 6.03125q0 3.328125 1.375 5.984375q1.375 2.640625 3.765625 4.125q2.40625 1.484375 5.59375 1.484375zm29.25679 7.0625l0 -52.28125l8.609375 0l0 22.671875l-1.625 0.859375q0.703125 -2.546875 2.75 -4.625q2.0625 -2.09375 4.890625 -3.359375q2.828125 -1.28125 5.78125 -1.28125q4.25 0 7.109375 1.703125q2.859375 1.6875 4.296875 5.078125q1.453125 3.390625 1.453125 8.484375l0 22.75l-8.6875 0l0 -22.109375q0 -2.828125 -0.78125 -4.703125q-0.765625 -1.875 -2.390625 -2.75q-1.625 -0.890625 -3.953125 -0.8125q-1.921875 0 -3.515625 0.59375q-1.578125 0.59375 -2.75 1.703125q-1.15625 1.09375 -1.828125 2.5q-0.671875 1.40625 -0.671875 3.109375l0 22.46875l-4.3125 0q-1.265625 0 -2.375 0q-1.09375 0 -2.0 0zm47.04532 0l0 -46.703125l8.703125 0l0 46.703125l-8.703125 0zm-7.34375 -29.1875l0 -8.046875l24.171875 0l0 8.046875l-24.171875 0z" fill-rule="nonzero"/><path fill="#ffffff" d="m86.291336 91.83465l0 0c0 -35.59845 28.491615 -64.456696 63.637802 -64.456696l0 0c16.877792 0 33.064316 6.7909546 44.99872 18.87893c11.934402 12.087975 18.639069 28.482788 18.639069 45.577766l0 0c0 35.59845 -28.491608 64.45669 -63.637787 64.45669l0 0c-35.146187 0 -63.637802 -28.858238 -63.637802 -64.45669zm9.844772 0l0 0c0 30.161331 24.083954 54.61193 53.79303 54.61193c29.70906 0 53.79303 -24.4506 53.79303 -54.61193l0 0c0 -30.161335 -24.08397 -54.611927 -53.79303 -54.611927l0 0c-29.709076 0 -53.79303 24.450592 -53.79303 54.611927z" fill-rule="evenodd"/><path fill="#ffffff" d="m115.92126 91.86089l0 0c0 -18.899445 15.236427 -34.220474 34.0315 -34.220474l0 0c9.025711 0 17.681763 3.605362 24.063904 10.022942c6.382141 6.4175873 9.96759 15.121696 9.96759 24.197533l0 0c0 18.899445 -15.23642 34.220474 -34.031494 34.220474l0 0c-18.795074 0 -34.0315 -15.32103 -34.0315 -34.220474zm8.051857 0l0 0c0 14.45253 11.631485 26.168617 25.979645 26.168617c14.34816 0 25.979645 -11.716087 25.979645 -26.168617l0 0c0 -14.45253 -11.631485 -26.168625 -25.979645 -26.168625l0 0c-14.34816 0 -25.979645 11.716095 -25.979645 26.168625z" fill-rule="evenodd"/><path fill="#ffffff" d="m179.0149 88.365265l15.5590515 0l0 6.9921265l-15.5590515 0z" fill-rule="evenodd"/><path stroke="#ffffff" stroke-width="1.0" stroke-linejoin="round" stroke-linecap="butt" d="m179.0149 88.365265l15.5590515 0l0 6.9921265l-15.5590515 0z" fill-rule="evenodd"/></g></svg>